<?xml version="1.0" encoding="UTF-8"?>
<svg width="24" height="24" viewBox="0 0 48 48" xmlns="http://www.w3.org/2000/svg">
	<path fill="#4285F4" d="M24 9.5c3.97 0 7.56 1.37 10.39 3.64l6.22-6.22C35.91 2.52 30.33 0 24 0 14.6 0 6.35 5.47 2.53 13.43l7.69 5.97C12 13.38 17.5 9.5 24 9.5z"/>
	<path fill="#34A853" d="M46.5 24.5c0-1.55-.15-3.04-.44-4.48H24v8.48h12.67c-.55 2.97-2.2 5.49-4.7 7.18l7.2 5.59C43.6 37.65 46.5 31.62 46.5 24.5z"/>
	<path fill="#FBBC05" d="M10.21 28.61A14.46 14.46 0 0 1 9.5 24c0-1.61.28-3.16.78-4.61l-7.75-6C.87 16.6 0 20.17 0 24c0 3.77.86 7.33 2.47 10.53l7.74-5.92z"/>
	<path fill="#EA4335" d="M24 48c6.31 0 11.61-2.08 15.47-5.65l-7.2-5.59c-2.04 1.37-4.67 2.18-8.27 2.18-6.48 0-12-3.88-13.78-9.89l-7.74 5.92C6.35 42.53 14.6 48 24 48z"/>
</svg>
